HIERARCHY
ROOT root
{
	OFFSET 0.000000 0.000000 0.000000
	CHANNELS 6 Xposition Yposition Zposition Zrotation Yrotation Xrotation
	JOINT lhip
	{
		OFFSET 0.058581 -0.082280 -0.017664
		CHANNELS 3 Zrotation Yrotation Xrotation
		JOINT lknee
		{
			OFFSET 0.043451 -0.386469 0.008037
			CHANNELS 3 Zrotation Yrotation Xrotation
			JOINT lankle
			{
				OFFSET -0.014790 -0.426874 -0.037428
				CHANNELS 3 Zrotation Yrotation Xrotation
				JOINT ltoe
				{
					OFFSET 0.041054 -0.060286 0.122042
					CHANNELS 3 Zrotation Yrotation Xrotation
					End Site
					{
						OFFSET 0.000000 0.000000 0.000000
					}
				}
			}
		}
	}
	JOINT rhip
	{
		OFFSET -0.060310 -0.090513 -0.013543
		CHANNELS 3 Zrotation Yrotation Xrotation
		JOINT rknee
		{
			OFFSET -0.043257 -0.383688 -0.004843
			CHANNELS 3 Zrotation Yrotation Xrotation
			JOINT rankle
			{
				OFFSET 0.019056 -0.420046 -0.034562
				CHANNELS 3 Zrotation Yrotation Xrotation
				JOINT rtoe
				{
					OFFSET -0.034840 -0.062106 0.130323
					CHANNELS 3 Zrotation Yrotation Xrotation
					End Site
					{
						OFFSET 0.000000 0.000000 0.000000
					}
				}
			}
		}
	}
	JOINT lowerback
	{
		OFFSET 0.004439 0.124404 -0.038385
		CHANNELS 3 Zrotation Yrotation Xrotation
		JOINT upperback
		{
			OFFSET 0.004488 0.137956 0.026820
			CHANNELS 3 Zrotation Yrotation Xrotation
			JOINT chest
			{
				OFFSET -0.002265 0.056032 0.002855
				CHANNELS 3 Zrotation Yrotation Xrotation
				JOINT lowerneck
				{
					OFFSET -0.013390 0.211636 -0.033468
					CHANNELS 3 Zrotation Yrotation Xrotation
					JOINT upperneck
					{
						OFFSET 0.010113 0.088937 0.050410
						CHANNELS 3 Zrotation Yrotation Xrotation
						End Site
						{
							OFFSET 0.000000 0.000000 0.000000
						}
					}
				}
				JOINT lclavicle
				{
					OFFSET 0.071702 0.114000 -0.018898
					CHANNELS 3 Zrotation Yrotation Xrotation
					JOINT lshoulder
					{
						OFFSET 0.122921 0.045205 -0.019046
						CHANNELS 3 Zrotation Yrotation Xrotation
						JOINT lelbow
						{
							OFFSET 0.255332 -0.015649 -0.022946
							CHANNELS 3 Zrotation Yrotation Xrotation
							JOINT lwrist
							{
								OFFSET 0.265709 0.012698 -0.007375
								CHANNELS 3 Zrotation Yrotation Xrotation
								End Site
								{
									OFFSET 0.000000 0.000000 0.000000
								}
							}
						}
					}
				}
				JOINT rclavicle
				{
					OFFSET -0.082954 0.112472 -0.023707
					CHANNELS 3 Zrotation Yrotation Xrotation
					JOINT rshoulder
					{
						OFFSET -0.113228 0.046853 -0.008472
						CHANNELS 3 Zrotation Yrotation Xrotation
						JOINT relbow
						{
							OFFSET -0.260127 -0.014369 -0.031269
							CHANNELS 3 Zrotation Yrotation Xrotation
							JOINT rwrist
							{
								OFFSET -0.269108 0.006794 -0.006027
								CHANNELS 3 Zrotation Yrotation Xrotation
								End Site
								{
									OFFSET 0.000000 0.000000 0.000000
								}
							}
						}
					}
				}
			}
		}
	}
}
MOTION
Frames: 11
Frame Time: 0.033333
-0.551922 1.911565 1.009002 -33.293995 -1.251664 81.758592 -1.181267 -0.344509 3.899630 -3.791647 -14.554412 10.069225 4.007309 5.592427 -10.968061 0.000000 -0.000000 0.000000 -4.397031 -8.154733 -5.253700 -2.086898 -14.921303 39.625034 2.577902 -12.617196 -14.709983 0.000000 -0.000000 0.000000 2.867406 2.186234 15.514732 1.579809 2.396456 -0.617996 1.106182 0.634019 2.545573 2.535662 7.910286 5.712040 -4.161970 4.221888 15.431184 -26.260886 4.685493 1.643806 -56.034401 -5.292900 6.958114 9.520177 -27.159636 4.770344 -5.211255 -3.501242 -7.911290 28.404519 3.819365 2.353265 53.453455 11.019447 11.774843 -15.429300 23.546800 -11.710086 3.890053 4.091263 -4.962410 
-0.553933 1.911081 1.009978 -29.638591 -1.384588 81.787402 -1.525288 -1.453015 3.390613 -3.936995 -16.548601 10.695158 3.845836 5.188232 -10.721541 0.000000 -0.000000 0.000000 -3.632652 -5.874903 -5.219289 0.293918 -9.890640 37.773775 3.342384 -9.702945 -16.504905 0.000000 -0.000000 0.000000 2.327987 1.964785 14.979491 1.873136 1.769054 -0.221024 0.907191 0.454832 2.337688 2.967804 8.856407 5.540667 -4.043059 4.066647 14.790715 -26.314850 4.076512 1.604915 -54.898653 -5.111008 7.265889 9.844221 -26.627148 3.325506 -4.538485 -3.226587 -7.900755 29.043489 3.836248 2.384847 53.687607 10.892189 12.322087 -16.642469 25.810053 -12.060579 3.712414 4.325917 -5.910839 
-0.557159 1.911223 1.011301 -25.582090 -1.353024 81.713144 -1.770877 -2.347385 2.946048 -3.830916 -18.789464 11.341177 3.454238 4.634009 -10.766650 0.000000 -0.000000 0.000000 -2.389427 -3.398120 -4.492875 1.670517 -4.702444 35.227818 3.767188 -6.864818 -18.396117 0.000000 -0.000000 0.000000 2.022016 1.850172 15.053244 1.961501 1.135889 -0.597439 0.914349 -0.169418 2.371279 3.256864 10.110124 4.902022 -3.855443 4.175438 13.818981 -25.976149 3.718035 0.927167 -54.848777 -5.300053 7.408648 10.223618 -25.171783 2.122844 -2.860650 -2.919090 -7.592114 28.969594 3.213285 1.495462 54.356643 10.283760 13.319705 -16.808068 28.136302 -11.096570 3.312806 4.447200 -7.016550 
-0.561042 1.911799 1.011623 -21.170132 -1.194267 81.276783 -1.743622 -3.716837 2.920319 -3.928938 -21.043544 11.775691 2.750486 3.889916 -10.728711 0.000000 -0.000000 0.000000 -0.917952 -0.578573 -2.772500 2.069173 -0.269571 32.280319 4.778534 -4.465330 -19.295649 0.000000 -0.000000 0.000000 1.363317 1.273762 15.173624 2.286815 0.254438 -0.043549 1.238988 -0.319029 2.330235 3.275309 11.631487 3.447411 -3.529748 4.862276 12.322411 -25.929439 3.188915 0.210532 -55.014084 -5.679486 7.498521 11.036380 -24.422581 0.529427 -1.790496 -3.053329 -7.431202 28.719163 3.149559 1.002503 54.778408 9.721580 14.188255 -17.387253 30.464045 -10.529923 3.079699 4.605417 -7.668511 
-0.564787 1.911274 1.010839 -16.903552 -1.252367 81.004562 -1.925053 -5.018003 2.783850 -4.187460 -23.117950 12.221201 2.400332 3.295045 -10.640112 0.000000 -0.000000 0.000000 0.120098 1.519428 -1.020065 2.422658 4.102059 29.701251 5.043978 -2.493979 -18.485830 0.000000 -0.000000 0.000000 0.507057 0.529015 14.136790 2.804702 -0.840267 1.497963 1.585965 0.157408 2.547266 2.718979 13.151711 2.736781 -3.243873 6.346818 9.607057 -26.269326 1.800032 0.147687 -54.426046 -5.615798 7.876705 11.405551 -24.999177 -0.488048 -1.635691 -3.015837 -8.473607 27.962139 3.853408 1.593228 55.162083 9.486397 14.380700 -18.739584 32.520137 -10.777352 3.488954 4.681579 -8.932613 
-0.569530 1.911837 1.009337 -13.234351 -1.666278 81.085407 -2.396529 -6.054995 2.085779 -4.408250 -24.439627 13.014567 2.266409 2.424621 -10.624456 0.000000 -0.000000 0.000000 0.407060 2.192899 0.082771 2.142072 6.838637 27.818663 4.331594 -2.011696 -16.441143 0.000000 -0.000000 0.000000 0.416500 0.996566 14.147041 2.424987 -1.214815 1.281443 1.433508 -0.317542 2.576458 2.566547 14.371827 1.418408 -2.948848 7.744608 8.072449 -25.803344 1.443061 -0.234036 -54.221650 -5.786789 8.236935 11.161116 -25.767296 -0.074846 -1.103634 -3.284213 -8.784284 28.068685 3.167011 1.091547 55.431031 8.559522 15.170162 -18.839224 34.061479 -10.022886 3.325029 4.836486 -9.406409 
-0.574586 1.914097 1.007570 -10.151263 -1.939481 81.373001 -2.515640 -7.075354 0.907053 -4.961704 -25.287779 14.239443 2.125797 1.657189 -11.055300 0.000000 -0.000000 0.000000 0.355079 1.727007 1.044398 2.022311 6.769462 26.215542 3.385241 -2.104097 -16.933720 0.000000 -0.000000 0.000000 0.528912 1.382362 14.068338 2.048522 -1.442942 0.969270 1.277760 -0.248446 2.564813 1.973240 15.704471 0.371670 -2.900593 8.696708 6.878049 -25.989817 1.085623 -0.449062 -53.498531 -5.660476 8.400590 10.866006 -27.575898 0.277172 -1.108462 -3.255538 -8.782260 27.993729 3.122299 1.312771 55.622152 7.862440 15.154452 -18.760891 34.368989 -9.399688 3.683498 4.888235 -9.325142 
-0.579824 1.916409 1.006076 -8.265346 -2.035197 81.334317 -2.629696 -7.538787 0.270886 -4.803411 -25.813583 15.241315 1.843496 1.048463 -11.539823 0.000000 -0.000000 0.000000 0.229351 -0.029002 3.109834 1.721385 5.682809 22.540185 2.649217 -2.197363 -17.474563 0.000000 -0.000000 0.000000 1.446555 2.243245 14.413514 1.245861 -1.119804 0.876821 0.902506 0.002408 2.545510 1.323065 16.179202 -1.205624 -2.563627 9.051809 6.214277 -26.215959 0.819184 -1.028525 -53.184021 -5.875528 8.420879 10.745373 -28.767757 0.716934 -0.593252 -3.650996 -8.379891 27.914466 3.452726 1.404780 55.464888 7.069552 14.857842 -17.755792 33.696885 -8.771880 3.577597 4.908235 -9.077138 
-0.586014 1.919720 1.006215 -7.191209 -2.007114 81.671117 -2.356185 -8.101766 -0.652126 -4.760040 -25.942757 16.077729 1.451029 0.772920 -11.582928 0.000000 -0.000000 0.000000 0.462707 -1.271933 3.796464 1.427366 5.976919 20.604962 2.702316 -1.901224 -16.751826 0.000000 -0.000000 0.000000 2.028318 3.275489 14.454054 0.750964 -0.169066 0.668943 0.726347 0.547662 2.552566 0.943378 16.182100 -2.424843 -2.405058 9.238406 6.084585 -26.831833 0.830159 -1.427547 -53.216370 -6.270655 8.756742 11.032173 -29.815815 0.540853 -0.559918 -4.181743 -8.231212 27.883434 3.506373 1.477497 54.981666 6.564593 14.796544 -16.262031 31.566809 -8.080081 4.146896 4.814844 -8.757351 
-0.591276 1.923652 1.007257 -6.272234 -1.971871 82.029886 -2.396142 -9.177881 -1.652369 -4.588098 -25.787012 16.970367 1.100955 0.986056 -11.337505 0.000000 -0.000000 0.000000 0.698444 -0.631473 3.588639 2.039985 6.023311 20.019861 2.733037 -2.376050 -16.584149 0.000000 -0.000000 0.000000 2.616986 3.763452 14.512951 0.287447 0.678461 0.726544 0.328899 1.101541 2.422054 0.500554 16.001263 -3.582567 -2.312730 9.103147 5.590355 -26.996878 1.085591 -1.645088 -54.019798 -6.472735 9.329538 11.848179 -30.500048 0.144956 -0.558696 -4.726881 -8.895114 27.694987 4.396597 1.922273 54.718172 6.706673 14.878534 -14.709232 27.997641 -7.365940 4.563122 4.361560 -8.488816 
-0.595976 1.926729 1.008186 -4.871391 -1.791755 82.288147 -2.441380 -9.956829 -2.858471 -4.571872 -25.625930 18.463165 0.895112 1.031279 -11.081870 0.000000 -0.000000 0.000000 0.827163 -1.164062 4.013113 2.401992 5.313952 18.692467 2.511123 -1.994185 -16.548885 0.000000 -0.000000 0.000000 3.241647 4.220129 14.739389 -0.011448 1.039904 0.498408 0.193732 1.470114 2.357205 0.276951 15.558324 -4.403458 -2.238543 9.056885 5.272456 -27.103159 1.358304 -1.467345 -55.091237 -6.321895 9.631794 12.417794 -31.367377 -0.412096 -0.680441 -4.871496 -9.988947 27.148051 5.214490 2.539499 54.551451 6.978543 14.518135 -13.317848 24.366661 -6.732173 5.300649 4.045056 -8.160975 
